<?xml version="1.0" encoding="UTF-8"?>
<svg id="Layer_1" data-name="Layer 1" xmlns="http://www.w3.org/2000/svg" xmlns:xlink="http://www.w3.org/1999/xlink" viewBox="0 0 1000 944.85">
  <defs>
    <style>
      .cls-1 {
        fill: url(#linear-gradient-11);
      }

      .cls-1, .cls-2, .cls-3, .cls-4, .cls-5, .cls-6, .cls-7, .cls-8, .cls-9, .cls-10, .cls-11, .cls-12, .cls-13, .cls-14, .cls-15, .cls-16, .cls-17 {
        stroke-width: 0px;
      }

      .cls-2 {
        fill: url(#linear-gradient-12);
      }

      .cls-3 {
        fill: url(#linear-gradient-13);
      }

      .cls-4 {
        fill: url(#linear-gradient-10);
      }

      .cls-5 {
        fill: url(#linear-gradient-17);
      }

      .cls-6 {
        fill: url(#linear-gradient-16);
      }

      .cls-7 {
        fill: url(#linear-gradient-15);
      }

      .cls-8 {
        fill: url(#linear-gradient-14);
      }

      .cls-9 {
        fill: url(#linear-gradient);
      }

      .cls-9, .cls-10 {
        fill-rule: evenodd;
      }

      .cls-10 {
        fill: url(#linear-gradient-2);
      }

      .cls-11 {
        fill: url(#linear-gradient-4);
      }

      .cls-12 {
        fill: url(#linear-gradient-3);
      }

      .cls-13 {
        fill: url(#linear-gradient-8);
      }

      .cls-14 {
        fill: url(#linear-gradient-9);
      }

      .cls-15 {
        fill: url(#linear-gradient-7);
      }

      .cls-16 {
        fill: url(#linear-gradient-5);
      }

      .cls-17 {
        fill: url(#linear-gradient-6);
      }
    </style>
    <linearGradient id="linear-gradient" x1="735.82" y1="205.87" x2="735.82" y2="-26.94" gradientUnits="userSpaceOnUse">
      <stop offset="0" stop-color="#949598"/>
      <stop offset="1" stop-color="#fff"/>
    </linearGradient>
    <linearGradient id="linear-gradient-2" x1="735.82" y1="176.46" x2="735.82" y2="308.81" gradientUnits="userSpaceOnUse">
      <stop offset="0" stop-color="#706928"/>
      <stop offset="1" stop-color="#f7c950"/>
    </linearGradient>
    <linearGradient id="linear-gradient-3" x1="80.09" y1="379.4" x2="80.09" y2="588.96" xlink:href="#linear-gradient-2"/>
    <linearGradient id="linear-gradient-4" x1="232.25" y1="379.4" x2="232.25" y2="588.96" xlink:href="#linear-gradient-2"/>
    <linearGradient id="linear-gradient-5" x1="384.41" y1="379.4" x2="384.41" y2="588.96" xlink:href="#linear-gradient-2"/>
    <linearGradient id="linear-gradient-6" x1="538.22" y1="379.4" x2="538.22" y2="588.96" xlink:href="#linear-gradient-2"/>
    <linearGradient id="linear-gradient-7" x1="690.38" y1="379.4" x2="690.38" y2="588.96" xlink:href="#linear-gradient-2"/>
    <linearGradient id="linear-gradient-8" x1="842.54" y1="379.4" x2="842.54" y2="588.96" xlink:href="#linear-gradient-2"/>
    <linearGradient id="linear-gradient-9" x1="57.59" y1="335.28" x2="57.59" y2="99.97" xlink:href="#linear-gradient"/>
    <linearGradient id="linear-gradient-10" x1="162.26" y1="335.28" x2="162.26" y2="99.97" xlink:href="#linear-gradient"/>
    <linearGradient id="linear-gradient-11" x1="266.97" y1="335.28" x2="266.97" y2="99.97" xlink:href="#linear-gradient"/>
    <linearGradient id="linear-gradient-12" x1="369.65" y1="335.28" x2="369.65" y2="99.97" xlink:href="#linear-gradient"/>
    <linearGradient id="linear-gradient-13" x1="473.05" y1="335.28" x2="473.05" y2="99.97" xlink:href="#linear-gradient"/>
    <linearGradient id="linear-gradient-14" x1="62.41" y1="335.28" x2="62.41" y2="99.97" xlink:href="#linear-gradient"/>
    <linearGradient id="linear-gradient-15" x1="154.16" y1="335.28" x2="154.16" y2="99.97" xlink:href="#linear-gradient"/>
    <linearGradient id="linear-gradient-16" x1="259.82" y1="335.28" x2="259.82" y2="99.97" xlink:href="#linear-gradient"/>
    <linearGradient id="linear-gradient-17" x1="359.32" y1="335.28" x2="359.32" y2="99.97" xlink:href="#linear-gradient"/>
  </defs>
  <path class="cls-9" d="M554.37,163.85c4.08-42.59,22.82-80.91,51.12-109.84,16.63,15.84,34.49,27.85,53.08,36.36,19.41,8.89,39.48,13.96,59.65,15.59v57.89h-163.85ZM866.4,54.26c28.17,28.9,46.81,67.12,50.88,109.59h-163.85v-58.24c18.96-1.75,37.29-6.01,55.02-13.35,20.38-8.43,39.7-20.83,57.95-38.01h0ZM753.43,0c31.73,3.04,61.08,14.22,85.95,31.41-14.16,12.77-28.91,22.05-44.26,28.4-13.27,5.49-27.17,8.85-41.68,10.43V0h0ZM632.48,31.27c24.83-17.11,54.1-28.23,85.74-31.27v70.62c-15.35-1.52-30.51-5.49-45.08-12.16-14.11-6.46-27.78-15.45-40.66-27.2h0Z"/>
  <path class="cls-10" d="M718.22,362.91c-31.84-3.05-61.29-14.3-86.22-31.6,13.02-11.95,26.85-21.09,41.14-27.63,14.57-6.67,29.73-10.64,45.08-12.16v71.39h0ZM605.1,308.51c-28.09-28.88-46.67-67.05-50.73-109.45h163.85v57.13c-20.17,1.63-40.25,6.7-59.65,15.59-18.73,8.57-36.73,20.71-53.46,36.73h0ZM917.28,199.06c-4.05,42.28-22.55,80.34-50.49,109.2-18.36-17.37-37.81-29.88-58.34-38.37-17.73-7.34-36.06-11.6-55.02-13.35v-57.47h163.85ZM839.85,331.17c-24.97,17.39-54.49,28.68-86.42,31.74v-71.01c14.51,1.58,28.41,4.94,41.68,10.43,15.53,6.42,30.43,15.84,44.74,28.83h0Z"/>
  <g>
    <path class="cls-12" d="M119.17,614.7H12.26v-209.22h106.92l.52.16c13.14,4.07,28.23,11.97,28.23,37.11v134.67c0,25.14-15.09,33.04-28.23,37.11l-.52.16ZM19.48,607.48h98.6c18.77-5.98,22.63-16.35,22.63-30.06v-134.67c0-18.89-9.03-25.74-22.63-30.06H19.48v194.78ZM89.65,578.23h-24.7v-136.27h24.7l5.57,4.75v126.78l-5.58,4.75ZM72.17,571.01h14.82l1.01-.86v-120.11l-1.01-.86h-14.82v121.83Z"/>
    <path class="cls-11" d="M301.73,614.7h-56.28l-3.95-39.28h-18.5l-3.95,39.28h-56.28v-37.88l.06-.31,30.5-171.03h77.85l30.56,171.34v37.88ZM251.98,607.48h42.53v-30.02l-29.38-164.76h-65.76l-29.38,164.76v30.02h42.53l3.95-39.28h31.56l3.95,39.28ZM244.49,533.34h-24.47l7.33-70.91h9.8l7.33,70.91ZM228.02,526.12h8.46l-4.23-40.91-4.23,40.91Z"/>
    <path class="cls-16" d="M423.49,614.7h-106.92v-209.22h106.92l.52.16c13.14,4.07,28.23,11.97,28.23,37.11v134.67c0,25.14-15.09,33.04-28.23,37.11l-.52.16ZM323.8,607.48h98.6c18.77-5.98,22.63-16.35,22.63-30.06v-134.67c0-18.89-9.03-25.74-22.63-30.06h-98.6v194.78ZM393.98,578.23h-24.7v-136.27h24.7l5.57,4.75v126.78l-5.58,4.75ZM376.5,571.01h14.82l1.01-.86v-120.11l-1.01-.86h-14.82v121.83Z"/>
    <path class="cls-17" d="M577.3,614.7h-106.92v-209.22h106.92l.52.16c13.14,4.07,28.23,11.97,28.23,37.11v134.67c0,25.14-15.09,33.04-28.23,37.11l-.52.16ZM477.61,607.48h98.6c18.77-5.98,22.63-16.35,22.63-30.06v-134.67c0-18.89-9.03-25.74-22.63-30.06h-98.6v194.78ZM547.78,578.23h-24.7v-136.27h24.7l5.57,4.75v126.78l-5.58,4.75ZM530.3,571.01h14.82l1.01-.86v-120.11l-1.01-.86h-14.82v121.83Z"/>
    <path class="cls-15" d="M720.34,614.7h-59.92v-82.24l-39.52-88.66v-38.33h55.93l13.55,63.35,13.55-63.35h55.93v38.33l-39.52,88.66v82.24ZM667.64,607.48h45.48v-76.55l.31-.7,39.21-87.95v-29.57h-42.87l-14.82,69.3h-9.13l-14.82-69.3h-42.87v29.57l39.52,88.65v76.55Z"/>
    <path class="cls-13" d="M869.21,614.7h-56.62v-46.5h56.62v46.5ZM819.8,607.48h42.18v-32.06h-42.18v32.06ZM865.26,552.98h-50.37v-26.05c0-15.08,1.29-24.85,19.2-33.28l16.37-7.72v-35.88l-1.01-.86h-13.81l-1.01.86v31.12h-59.92v-38.4c0-25.15,15.09-33.04,28.23-37.11l.52-.16h78.16l.52.16c13.14,4.07,28.23,11.97,28.23,37.11v42.64c0,16.78-3.4,27.76-20.79,34.24l-24.33,9.21v24.12ZM822.11,545.76h35.93v-21.89l29.01-10.98c13.7-5.11,16.11-12.93,16.11-27.48v-42.64c0-18.89-9.03-25.74-22.63-30.06h-75.96c-18.77,5.98-22.63,16.35-22.63,30.06v31.18h45.48v-27.23l5.57-4.75h19.13l5.57,4.75v43.79l-20.51,9.67c-13.76,6.48-15.06,12.49-15.06,26.75v18.83Z"/>
  </g>
  <g>
    <path class="cls-14" d="M62.38,100.8h-15.6l-11.14,63.05H0L28.29,3.44h35.65l-11.58,65.06h15.59L79.54,3.44h35.65l-28.29,160.41h-35.65l11.14-63.05Z"/>
    <path class="cls-4" d="M196.28,137.12c-2.9,16.93-9.36,23.17-22.06,26.74h-52.13c-9.13-3.56-15.37-12.03-12.7-26.74l18.94-106.94c2.9-16.93,9.36-23.17,22.06-26.74h52.13c9.13,3.56,15.15,12.03,12.7,26.74l-18.94,106.94ZM178.9,33.52l-1.78-2.23h-11.14l-2.67,2.23-17.6,100.26,1.78,2.23h11.14l2.67-2.23,17.6-100.26Z"/>
    <path class="cls-1" d="M300.99,137.12c-2.9,16.93-9.36,23.17-22.06,26.74h-52.13c-9.13-3.56-15.37-12.03-12.7-26.74l18.94-106.94c2.9-16.93,9.36-23.17,22.06-26.74h52.13c9.13,3.56,15.15,12.03,12.7,26.74l-18.94,106.94ZM283.61,33.52l-1.78-2.23h-11.14l-2.67,2.23-17.6,100.26,1.78,2.23h11.14l2.67-2.23,17.6-100.26Z"/>
    <path class="cls-2" d="M359.58,108.15l-9.8,55.7h-35.65L342.42,3.44h69.51c9.14,3.56,15.15,12.03,12.7,26.74l-9.13,51.24c-2.9,16.93-9.36,23.17-22.06,26.74h-33.86ZM373.17,31.29l-8.69,49.01h13.37l2.67-2.23,7.8-44.56-1.78-2.23h-13.37Z"/>
    <path class="cls-3" d="M513.3,101.69l-6.24,35.42c-2.9,16.93-9.36,23.17-22.06,26.74h-52.13c-9.13-3.56-15.37-12.03-12.7-26.74l5.57-31.64h35.65l-4.9,28.29,1.78,2.23h11.14l2.67-2.23,4.68-26.96-1.34-3.12-33.86-16.49c-10.25-4.9-10.7-10.25-8.24-24.51l5.79-32.53c2.9-16.93,9.36-23.17,22.06-26.74h52.13c9.13,3.56,15.15,12.03,12.7,26.74l-5.35,29.85h-35.65l4.68-26.51-1.78-2.23h-11.14l-2.67,2.23-4.23,24.51,2.01,4.68,33.2,14.48c8.47,3.56,10.25,12.48,8.24,24.51Z"/>
  </g>
  <g>
    <path class="cls-8" d="M18.63,362.16l11.14-63.05-14.26-70.4,4.68-26.96h31.86l1.78,56.14h2.23l19.83-56.14h33.42l-4.68,26.96-39.21,70.4-11.14,63.05H18.63Z"/>
    <path class="cls-7" d="M188.17,335.42c-2.9,16.93-9.36,23.17-22.06,26.74h-52.13c-9.13-3.56-15.37-12.03-12.7-26.74l18.94-106.94c2.9-16.93,9.36-23.17,22.06-26.74h52.13c9.13,3.56,15.15,12.03,12.7,26.74l-18.94,106.94ZM170.8,231.82l-1.78-2.23h-11.14l-2.67,2.23-17.6,100.26,1.78,2.23h11.14l2.67-2.23,17.6-100.26Z"/>
    <path class="cls-6" d="M242.31,332.08l1.78,2.23h8.91l2.67-2.23,22.95-130.33h35.65l-23.62,133.68c-2.9,16.93-9.36,23.17-22.06,26.74h-49.91c-9.13-3.56-15.37-11.81-12.7-26.74l23.62-133.68h35.65l-22.95,130.33Z"/>
    <path class="cls-5" d="M303.8,362.16l28.29-160.41h69.51c9.13,3.56,15.15,12.03,12.7,26.74l-6.02,34.09c-2.9,16.26-9.13,22.73-20.72,26.29l11.36,52.8-4.01,20.5h-28.52l-11.36-62.38h-4.68l-10.92,62.38h-35.65ZM362.84,229.59l-7.58,42.33h13.37l2.67-2.23,6.68-37.87-1.78-2.23h-13.37Z"/>
  </g>
</svg>